# xmcd CD database file
#
# Track frame offsets:
#	150
#	20419
#	40485
#	64357
#	83942
#	102592
#	123137
#	143022
#
# Disc length: 2158 seconds
#
# Revision: 0
# Processed by: cddbd v1.5.2PL0 Copyright (c) Steve Scherf et al.
# Submitted via: CDex 1.70beta2
#
DISCID=6c086c08
DTITLE=Javier Rosado - Vicio De Amor
DYEAR=1900
DGENRE=Salsa
TTITLE0=Ñañara
TTITLE1=Sola
TTITLE2=Baby Sin Ti
TTITLE3=Calderito
TTITLE4=Indirecta
TTITLE5=No Me Mires
TTITLE6=Vicio De Amor
TTITLE7=Me Quede Atras
EXTD=
EXTT0=
EXTT1=
EXTT2=
EXTT3=
EXTT4=
EXTT5=
EXTT6=
EXTT7=
PLAYORDER=
